HIERARCHY
ROOT Pelvis
{
	OFFSET 0.000000 0.000000 0.000000
	CHANNELS 6 Xposition Yposition Zposition Xrotation Yrotation Zrotation
	JOINT LeftUpLeg_virtual
	{
		OFFSET 0.000000 0.000000 0.000000
		CHANNELS 3 Xrotation Yrotation Zrotation
		JOINT LeftUpLeg
		{
			OFFSET 18.735201 -5.666702 -4.541200
			CHANNELS 3 Xrotation Yrotation Zrotation
			JOINT LeftLeg
			{
				OFFSET -0.021200 -31.938179 0.493100
				CHANNELS 3 Xrotation Yrotation Zrotation
				JOINT LeftFoot
				{
					OFFSET 0.021200 -31.938179 -4.336299
					CHANNELS 3 Xrotation Yrotation Zrotation
					JOINT LeftToeBase
					{
						OFFSET 0.943001 -26.722000 15.023500
						CHANNELS 3 Xrotation Yrotation Zrotation
						End Site
						{
							OFFSET 0 0 0
						}
					}
				}
			}
		}
	}
	JOINT RightUpLeg_virtual
	{
		OFFSET 0.000000 0.000000 0.000000
		CHANNELS 3 Xrotation Yrotation Zrotation
		JOINT RightUpLeg
		{
			OFFSET -18.735201 -5.666702 -4.541200
			CHANNELS 3 Xrotation Yrotation Zrotation
			JOINT RightLeg
			{
				OFFSET 0.018946 -31.938133 0.493100
				CHANNELS 3 Xrotation Yrotation Zrotation
				JOINT RightFoot
				{
					OFFSET -0.018946 -31.938126 -4.336299
					CHANNELS 3 Xrotation Yrotation Zrotation
					JOINT RightToeBase
					{
						OFFSET -0.943001 -26.722004 15.023500
						CHANNELS 3 Xrotation Yrotation Zrotation
						End Site
						{
							OFFSET 0 0 0
						}
					}
				}
			}
		}
	}
	JOINT Hips_virtual
	{
		OFFSET 0.000000 0.000000 0.000000
		CHANNELS 3 Xrotation Yrotation Zrotation
		JOINT Hips
		{
			OFFSET -0.000000 -0.000000 -0.000000
			CHANNELS 3 Xrotation Yrotation Zrotation
			JOINT Spine
			{
				OFFSET 0.000000 10.199997 -0.299500
				CHANNELS 3 Xrotation Yrotation Zrotation
				JOINT Spine1
				{
					OFFSET 0.000000 11.900002 -1.516600
					CHANNELS 3 Xrotation Yrotation Zrotation
					JOINT Spine2
					{
						OFFSET 0.000000 13.600006 -2.842500
						CHANNELS 3 Xrotation Yrotation Zrotation
						JOINT Neck_virtual
						{
							OFFSET 0.000000 0.000000 0.000000
							CHANNELS 3 Xrotation Yrotation Zrotation
							JOINT Neck
							{
								OFFSET 0.000000 9.624100 -2.890100
								CHANNELS 3 Xrotation Yrotation Zrotation
								JOINT Head
								{
									OFFSET 0.000000 14.068802 -1.351900
									CHANNELS 3 Xrotation Yrotation Zrotation
									End Site
									{
										OFFSET 0 0 0
									}
								}
							}
						}
						JOINT LeftShoulder_virtual
						{
							OFFSET 0.000000 0.000000 0.000000
							CHANNELS 3 Xrotation Yrotation Zrotation
							JOINT LeftShoulder
							{
								OFFSET 15.263000 10.923401 -0.547700
								CHANNELS 3 Xrotation Yrotation Zrotation
								JOINT LeftArm
								{
									OFFSET 25.438599 -2.830597 -13.032500
									CHANNELS 3 Xrotation Yrotation Zrotation
									JOINT LeftForeArm
									{
										OFFSET 29.960503 0.000000 0.000000
										CHANNELS 3 Xrotation Yrotation Zrotation
										JOINT LeftHand
										{
											OFFSET 27.849251 0.000000 0.000000
											CHANNELS 3 Xrotation Yrotation Zrotation
											End Site
											{
												OFFSET 0 0 0
											}
										}
									}
								}
							}
						}
						JOINT RightShoulder_virtual
						{
							OFFSET 0.000000 0.000000 0.000000
							CHANNELS 3 Xrotation Yrotation Zrotation
							JOINT RightShoulder
							{
								OFFSET -15.263000 10.923401 -0.547700
								CHANNELS 3 Xrotation Yrotation Zrotation
								JOINT RightArm
								{
									OFFSET -25.438599 -2.830597 -13.032500
									CHANNELS 3 Xrotation Yrotation Zrotation
									JOINT RightForeArm
									{
										OFFSET -29.960503 0.000000 0.000000
										CHANNELS 3 Xrotation Yrotation Zrotation
										JOINT RightHand
										{
											OFFSET -27.849251 0.000000 0.000000
											CHANNELS 3 Xrotation Yrotation Zrotation
											End Site
											{
												OFFSET 0 0 0
											}
										}
									}
								}
							}
						}
					}
				}
			}
		}
	}
}
MOTION
Frames: 5
Frame Time: 0.03333333
-2.783930 87.822426 2.837284 0.000000 0.000000 0.000000 -6.078101 -42.937947 -3.789441 -34.393131 2.849955 16.371212 38.633094 -14.745549 -0.131467 -1.804974 0.989156 -11.110739 0.000000 0.000000 0.000000 -6.078101 -42.937947 -3.789441 1.083763 -13.658368 -18.458668 33.743778 -7.727703 -0.244916 -25.561496 -6.503043 21.390699 0.000000 0.000000 0.000000 -6.078101 -42.937947 -3.789441 0.000000 0.000001 0.000000 5.850291 4.526139 -1.455027 11.835727 9.038083 -3.084131 0.000000 0.000000 0.000000 11.835732 9.038085 -3.084132 -0.860981 -0.253306 0.048902 0.000000 0.000000 0.000000 11.835732 9.038085 -3.084132 1.387435 -0.696990 -7.876280 -14.260092 2.393796 -63.277113 9.865054 -47.524897 5.927946 0.000000 0.000000 0.000000 11.835732 9.038085 -3.084132 1.410930 9.461508 9.792744 1.220049 -24.270715 60.532920 -6.660696 41.858408 8.043836 0.000000 0.000000 0.000000 
-2.786008 87.826065 2.838776 0.000000 0.000000 0.000000 -6.021324 -43.082040 -3.732606 -34.350087 2.854058 16.342879 38.648755 -14.578106 -0.073610 -1.880372 0.999963 -11.167111 0.000000 0.000000 0.000000 -6.021324 -43.082040 -3.732606 0.892397 -13.633258 -18.486400 33.816349 -7.616861 -0.366533 -25.559265 -6.506626 21.403561 0.000000 0.000000 0.000000 -6.021324 -43.082040 -3.732606 0.000000 0.000002 0.000000 5.841513 4.528212 -1.471666 11.819973 9.041232 -3.121165 0.000000 0.000000 0.000000 11.819968 9.041238 -3.121163 -0.877789 -0.258500 0.040577 0.000000 0.000000 0.000000 11.819968 9.041238 -3.121163 1.389715 -0.709913 -7.876830 -14.244240 2.394029 -63.227246 9.904598 -47.573135 5.947292 0.000000 0.000000 0.000000 11.819968 9.041238 -3.121163 1.393258 9.523884 9.813709 1.197311 -24.211981 60.500675 -6.605041 41.712706 8.037633 0.000000 0.000000 0.000000 
-2.786529 87.828140 2.837029 0.000000 0.000000 0.000000 -5.926396 -43.218831 -3.646352 -34.340087 2.853296 16.319825 38.634313 -14.423520 -0.031475 -1.932607 1.005273 -11.232316 0.000000 0.000000 0.000000 -5.926396 -43.218831 -3.646352 0.685755 -13.581080 -18.509516 33.881891 -7.541176 -0.486538 -25.545232 -6.517513 21.437471 0.000000 0.000000 0.000000 -5.926396 -43.218831 -3.646352 0.000000 -0.000002 0.000000 5.833300 4.506466 -1.481218 11.803854 8.997828 -3.142078 0.000000 0.000000 0.000000 11.803859 8.997839 -3.142083 -0.889231 -0.243402 0.023454 0.000000 0.000000 0.000000 11.803859 8.997839 -3.142083 1.389182 -0.727278 -7.903651 -14.193233 2.416426 -63.198210 9.925535 -47.632667 5.957008 0.000000 0.000000 0.000000 11.803859 8.997839 -3.142083 1.394622 9.568493 9.789848 1.143560 -24.160819 60.514035 -6.548432 41.493041 7.985896 0.000000 0.000000 0.000000 
-2.784061 87.818199 2.837227 0.000000 0.000000 0.000000 -5.855289 -43.289244 -3.590540 -34.368405 2.807433 16.263473 38.690559 -14.290678 0.055165 -1.996578 1.009152 -11.309128 0.000000 0.000000 0.000000 -5.855289 -43.289244 -3.590540 0.544716 -13.560325 -18.501681 33.944544 -7.502849 -0.598085 -25.551178 -6.535059 21.484316 0.000000 0.000000 0.000000 -5.855289 -43.289244 -3.590540 0.000000 0.000001 0.000000 5.834446 4.453840 -1.482929 11.804315 8.893256 -3.142281 0.000000 0.000000 0.000000 11.804309 8.893257 -3.142281 -0.907919 -0.214414 0.011570 0.000000 0.000000 0.000000 11.804309 8.893257 -3.142281 1.389979 -0.732070 -7.903792 -14.170284 2.428512 -63.191715 9.950646 -47.720718 5.983797 0.000000 0.000000 0.000000 11.804309 8.893257 -3.142281 1.380862 9.601771 9.807594 1.087385 -24.124681 60.474666 -6.503700 41.341697 7.945989 0.000000 0.000000 0.000000 
-2.781615 87.801384 2.841763 0.000000 0.000000 0.000000 -5.760521 -43.325218 -3.528295 -34.442919 2.739539 16.194066 38.780632 -14.165013 0.158602 -2.064380 1.006009 -11.383250 0.000000 0.000000 0.000000 -5.760521 -43.325218 -3.528295 0.423728 -13.528883 -18.464920 33.999732 -7.520057 -0.703948 -25.561466 -6.552151 21.543591 0.000000 0.000000 0.000000 -5.760521 -43.325218 -3.528295 0.000000 0.000001 0.000000 5.834325 4.380786 -1.473241 11.800387 8.749115 -3.116192 0.000000 0.000000 0.000000 11.800385 8.749115 -3.116195 -0.923266 -0.181190 -0.000572 0.000000 0.000000 0.000000 11.800385 8.749115 -3.116195 1.386660 -0.733912 -7.854093 -14.137252 2.446210 -63.234547 10.003376 -47.795379 6.024007 0.000000 0.000000 0.000000 11.800385 8.749115 -3.116195 1.364999 9.655442 9.837856 1.069885 -24.098454 60.371475 -6.439603 41.224259 7.953293 0.000000 0.000000 0.000000 
